<?xml version="1.0" encoding="utf-8"?>
<!-- Generator: Adobe Illustrator 19.0.0, SVG Export Plug-In . SVG Version: 6.00 Build 0)  -->
<svg version="1.1" id="layer" xmlns="http://www.w3.org/2000/svg" xmlns:xlink="http://www.w3.org/1999/xlink" x="0px" y="0px"
	 viewBox="-153 -46 652 652" style="enable-background:new -153 -46 652 652;" xml:space="preserve">
<style type="text/css">
	.st0{fill:#459BBE;}
	.st1{fill:#235971;}
</style>
<path class="st0" d="M68.9,285.9l21.8-139.1c-8.9,0-23.8,0-23.8,0c-10.9,0-25.2-5.9-29.7-17.3c-1.5-4-4.5-17.3,13.9-30.2
	c6.4-4.5,10.9-9.4,11.4-13.4c1-4,0-7.4-3-10.4c-3.5-3.5-11.4-5.9-21.3-5.9c-16.8,0-28.7,9.9-29.7,16.8c-1,5.4,3.5,9.4,6.9,11.9
	c10.4,7.9,12.9,19.3,6.4,30.2c-6.9,10.9-21.3,18.3-36.6,18.3c0,0-15.3,0-24.3,0c-2,13.4-34.7,221.3-37.1,237.6H54.6
	C55.1,377.5,61,337.9,68.9,285.9L68.9,285.9z"/>
<path class="st1" d="M243.7,25H111L93.2,137.4H116c12.4,0,24.3-5.4,29.2-13.9c1.5-2.5,2.5-5,2.5-6.9c0-4.5-3-8.4-6.4-10.4
	c-8.9-6.4-10.4-13.4-10.4-18.3c0-1,0-2,0-2.5c2-11.9,17.8-24.8,39.1-24.8c12.9,0,22.3,3,28.2,8.4c5,5,7.4,11.9,5.9,18.8
	c-2,8.4-10.4,15.3-15.3,18.8c-12.9,8.9-11.4,16.8-10.4,19.3c2.5,6.9,12.9,11.4,20.8,11.4h34.7l0,0c47,0.5,72.3,21.8,63.9,72.3
	c-7.4,46.5-43.1,66.8-85.6,67.3l-17.8,107.4h24.8c105.4,0,191.1-67.8,208.4-174.3C448.6,78,364.5,25,243.7,25z"/>
<g>
	<g>
		<path class="st1" d="M-83.5,432.4h53.5c22.8,0,28.2,11.4,26.7,22.3c-1.5,8.4-6.9,14.9-17.3,18.8c12.9,5,17.8,12.4,15.8,24.3
			c-2.5,14.9-15.3,25.7-32.2,25.7h-60.9L-83.5,432.4z M-48.4,470.5c10.4,0,15.3-5.4,16.3-11.9c1-6.9-2-11.9-12.4-11.9h-9.4l-4,23.8
			H-48.4z M-54.3,510.1c10.9,0,16.8-4.5,18.3-13.4c1-7.4-3-12.4-13.4-12.4h-10.4l-4,25.7H-54.3z"/>
		<path class="st1" d="M69.4,524.5c-13.9,1-20.8-0.5-23.8-6.4c-7.4,4.5-15.3,6.9-24.3,6.9c-15.8,0-21.3-7.9-19.8-17.3
			c0.5-4.5,3-8.4,7.4-11.9c8.4-7.4,30.2-8.4,38.6-14.4c0.5-6.4-2-8.9-9.9-8.9c-9.4,0-16.8,3-30.2,11.9l3-20.8
			c11.4-8.4,22.3-11.9,35.1-11.9c16.3,0,30.7,6.4,27.7,24.3l-3,20.3c-1,6.9-1,9.4,6.9,9.4L69.4,524.5z M45.7,493.3
			c-7.4,4.5-21.3,4-22.8,13.4c-0.5,4.5,2,7.9,6.4,7.9s9.9-2,13.9-5c-0.5-1.5,0-3.5,0.5-6.4L45.7,493.3z"/>
		<path class="st1" d="M95.7,453.2h27.7l-1.5,9.4c8.9-7.4,15.3-10.4,24.3-10.4c15.3,0,22.8,9.4,20.3,25.2L159,524h-27.7l5.9-38.6
			c1-6.9-1-10.4-6.4-10.4c-4.5,0-8.4,2.5-12.4,7.4l-6.4,41.1H84.3L95.7,453.2z"/>
		<path class="st1" d="M188.2,432.4H216l-6.9,45l26.7-24.3h34.2l-34.2,30.2L263,524h-35.1l-21.3-32.7h-0.5l-5,32.7h-27.7
			L188.2,432.4z"/>
	</g>
	<g>
		<path class="st1" d="M-83.5,432.4h53.5c22.8,0,28.2,11.4,26.7,22.3c-1.5,8.4-6.9,14.9-17.3,18.8c12.9,5,17.8,12.4,15.8,24.3
			c-2.5,14.9-15.3,25.7-32.2,25.7h-60.9L-83.5,432.4z M-48.4,470.5c10.4,0,15.3-5.4,16.3-11.9c1-6.9-2-11.9-12.4-11.9h-9.4l-4,23.8
			H-48.4z M-54.3,510.1c10.9,0,16.8-4.5,18.3-13.4c1-7.4-3-12.4-13.4-12.4h-10.4l-4,25.7H-54.3z"/>
		<path class="st1" d="M69.4,524.5c-13.9,1-20.8-0.5-23.8-6.4c-7.4,4.5-15.3,6.9-24.3,6.9c-15.8,0-21.3-7.9-19.8-17.3
			c0.5-4.5,3-8.4,7.4-11.9c8.4-7.4,30.2-8.4,38.6-14.4c0.5-6.4-2-8.9-9.9-8.9c-9.4,0-16.8,3-30.2,11.9l3-20.8
			c11.4-8.4,22.3-11.9,35.1-11.9c16.3,0,30.7,6.4,27.7,24.3l-3,20.3c-1,6.9-1,9.4,6.9,9.4L69.4,524.5z M45.7,493.3
			c-7.4,4.5-21.3,4-22.8,13.4c-0.5,4.5,2,7.9,6.4,7.9s9.9-2,13.9-5c-0.5-1.5,0-3.5,0.5-6.4L45.7,493.3z"/>
		<path class="st1" d="M95.7,453.2h27.7l-1.5,9.4c8.9-7.4,15.3-10.4,24.3-10.4c15.3,0,22.8,9.4,20.3,25.2L159,524h-27.7l5.9-38.6
			c1-6.9-1-10.4-6.4-10.4c-4.5,0-8.4,2.5-12.4,7.4l-6.4,41.1H84.3L95.7,453.2z"/>
		<path class="st1" d="M188.2,432.4H216l-6.9,45l26.7-24.3h34.2l-34.2,30.2L263,524h-35.1l-21.3-32.7h-0.5l-5,32.7h-27.7
			L188.2,432.4z"/>
	</g>
</g>
<g>
	<path class="st0" d="M286.3,432.4h32.2l-14.4,91.1h-32.2L286.3,432.4z"/>
	<path class="st0" d="M333.8,432.4h45.5c35.1,0,45.5,25.7,42.1,47c-3,20.8-19.8,44.6-50.5,44.6h-51L333.8,432.4z M363.5,502.2
		c15.3,0,24.3-7.4,26.7-23.8c2-11.9-2-23.8-18.8-23.8h-8.9l-7.4,48L363.5,502.2L363.5,502.2z"/>
</g>
</svg>
