<svg xmlns="http://www.w3.org/2000/svg" viewBox="0 0 188.229 54.72">
  <defs>
    <style>
      .cls-1 {
        fill: #466afc;
      }
    </style>
  </defs>
  <path id="logoWhite" class="cls-1" d="M70.82,9.527a4.814,4.814,0,0,0,3.317-1.3,4.406,4.406,0,0,0,1.37-3.39,4.513,4.513,0,0,0-1.37-3.462,4.746,4.746,0,0,0-6.635,0,4.726,4.726,0,0,0-1.37,3.462,4.406,4.406,0,0,0,1.37,3.39A4.507,4.507,0,0,0,70.82,9.527ZM18.967,32.893l-.577.577a5.119,5.119,0,0,1-1.01.721,7.815,7.815,0,0,1-1.37.577,3.881,3.881,0,0,1-1.587.288c-2.236,0-3.39-1.442-3.39-4.255V17.82h8.294V11.546H11.034V7.291a4.951,4.951,0,0,0-.5-2.452A4.936,4.936,0,0,0,9.3,3.324,3.7,3.7,0,0,0,7.572,2.6,15.228,15.228,0,0,0,5.7,2.459H4.76c-.288,0-.577.072-.865.072l-.938.144v8.871H0v6.2H2.957V30.874c0,.865.072,1.8.144,2.668a14.224,14.224,0,0,0,.5,2.524,7.525,7.525,0,0,0,2.813,3.822,10.015,10.015,0,0,0,5.769,1.442,18.174,18.174,0,0,0,3.462-.361,12.516,12.516,0,0,0,2.74-1.01,6.316,6.316,0,0,0,1.731-1.37,2.871,2.871,0,0,0,.649-1.514,3.987,3.987,0,0,0-.5-1.8A12.551,12.551,0,0,0,18.967,32.893Zm40.1-21.419a4.109,4.109,0,0,0-3.39,1.37,10.955,10.955,0,0,0-1.8,4.111l-3.822,13.7L44.93,14.719a6.144,6.144,0,0,0-1.659-2.452,4.459,4.459,0,0,0-2.668-.793,17.682,17.682,0,0,0-1.947.144,17.74,17.74,0,0,0-2.091.5l2.813,9.3-3.967,9.88L30.073,14.863a4.816,4.816,0,0,0-1.947-2.668,5.855,5.855,0,0,0-3.1-.793,10.144,10.144,0,0,0-2.019.216c-.721.144-1.514.361-2.236.577l9.375,25.674a4.211,4.211,0,0,0,7.861.216l4.4-10.6,3.75,10.385a4.279,4.279,0,0,0,3.967,2.813h.361A4.178,4.178,0,0,0,54.449,37.8l8.654-25.6a19.9,19.9,0,0,0-1.947-.577A19.051,19.051,0,0,0,59.065,11.474ZM75.8,16.883c0-2.019-.577-3.39-1.659-4.111a8.725,8.725,0,0,0-4.327-1.01,19.58,19.58,0,0,0-2.091.072,3.369,3.369,0,0,0-1.226.216l.072,10.529,3.678,3.245.361.361-1.514,1.587a12.631,12.631,0,0,0-3.245,8.221c0,2.019.577,3.39,1.659,4.111a8.821,8.821,0,0,0,4.4,1.01,19.58,19.58,0,0,0,2.091-.072,3.369,3.369,0,0,0,1.226-.216L75.147,30.3l-3.678-3.245-.433-.361L72.551,25.1A12.631,12.631,0,0,0,75.8,16.883ZM97.36,24.744a10.085,10.085,0,0,0-3.173-1.587,28.245,28.245,0,0,0-3.534-.938q-4.327-.974-4.327-3.029a2.983,2.983,0,0,1,.361-1.37,2.511,2.511,0,0,1,.938-.793,4.378,4.378,0,0,1,1.3-.361,8.728,8.728,0,0,1,1.37-.072,8.1,8.1,0,0,1,2.308.288,11.75,11.75,0,0,1,2.236.793c.649.288,1.3.649,1.947,1.01.5.288.938.649,1.442.938a24.606,24.606,0,0,0,1.226-2.38,5.347,5.347,0,0,0,.577-2.164c-.072-1.154-1.01-2.164-2.74-2.885a12.05,12.05,0,0,0-3.245-.938,20.761,20.761,0,0,0-4.255-.361,17.838,17.838,0,0,0-4.327.577A12.244,12.244,0,0,0,81.782,13.2a8.643,8.643,0,0,0-2.524,2.813,7.891,7.891,0,0,0-.938,3.822,8.167,8.167,0,0,0,.721,3.678,6.966,6.966,0,0,0,2.019,2.524,9.1,9.1,0,0,0,2.813,1.587,17.431,17.431,0,0,0,3.317.938,13.315,13.315,0,0,1,3.966,1.3,2.713,2.713,0,0,1,1.3,2.524,2.753,2.753,0,0,1-1.442,2.524,3.456,3.456,0,0,1-1.442.5,11.793,11.793,0,0,1-1.587.144,8.613,8.613,0,0,1-2.38-.288,11.751,11.751,0,0,1-2.236-.793,14.171,14.171,0,0,1-1.8-.938,6.219,6.219,0,0,1-1.3-1.01c-.5.793-.938,1.587-1.37,2.38a4.406,4.406,0,0,0-.577,2.164,2.3,2.3,0,0,0,1.01,1.947,9.2,9.2,0,0,0,1.8,1.082,14.108,14.108,0,0,0,2.957.938,18.434,18.434,0,0,0,4.471.361,17.106,17.106,0,0,0,4.688-.649A11.609,11.609,0,0,0,97,38.807a8.961,8.961,0,0,0,2.524-3.173,9.952,9.952,0,0,0,.938-4.327A8.078,8.078,0,0,0,99.6,27.34,8.565,8.565,0,0,0,97.36,24.744Zm30.434-10.89a10.526,10.526,0,0,0-3.606-2.524,12.352,12.352,0,0,0-4.255-.793,10.242,10.242,0,0,0-5.193,1.226,11.051,11.051,0,0,0-3.029,2.38,3.367,3.367,0,0,0-1.731-2.308,7.893,7.893,0,0,0-3.39-.649h-1.154c-.288,0-.577.072-.865.072l-.721.144V54.024h8.077V38.59a5.244,5.244,0,0,0,.577.649,9.6,9.6,0,0,0,1.37,1.01,11.963,11.963,0,0,0,2.236.865,10.98,10.98,0,0,0,3.029.433,13.772,13.772,0,0,0,4.183-.721,8.632,8.632,0,0,0,3.822-2.6,13.926,13.926,0,0,0,2.813-4.9,24.478,24.478,0,0,0,1.082-7.933,22.2,22.2,0,0,0-.938-7A10.419,10.419,0,0,0,127.794,13.854ZM121.231,32.46a4.758,4.758,0,0,1-4.471,2.452,6.736,6.736,0,0,1-2.885-.649,7.248,7.248,0,0,1-1.731-1.154V20.056a3.043,3.043,0,0,1,1.01-2.164,4.919,4.919,0,0,1,3.534-1.01,6.736,6.736,0,0,1,2.885.649,5.011,5.011,0,0,1,1.875,1.8,9.354,9.354,0,0,1,1.01,2.813,18.7,18.7,0,0,1,.288,3.462A14.388,14.388,0,0,1,121.231,32.46Zm37.429-10.6a19.54,19.54,0,0,0-.577-4.976,7.849,7.849,0,0,0-2.019-3.534,8.176,8.176,0,0,0-3.678-2.091,20.032,20.032,0,0,0-5.481-.649,23.48,23.48,0,0,0-4.471.433,17.144,17.144,0,0,0-3.75,1.082,8.119,8.119,0,0,0-2.524,1.514,2.217,2.217,0,0,0-.938,1.659,5.172,5.172,0,0,0,.5,1.875,9.3,9.3,0,0,0,1.37,2.308,40.391,40.391,0,0,1,3.967-1.947,12.493,12.493,0,0,1,4.616-.865,6.245,6.245,0,0,1,3.967,1.01,4.043,4.043,0,0,1,1.226,3.317v1.082h-1.3a10.157,10.157,0,0,0-1.442.072,35.717,35.717,0,0,0-4.76.577,16.532,16.532,0,0,0-4.832,1.587,10.209,10.209,0,0,0-3.678,3.1,8.134,8.134,0,0,0-1.442,5.12,9.522,9.522,0,0,0,.865,4.255,7.563,7.563,0,0,0,2.164,2.813,7.7,7.7,0,0,0,2.957,1.514,12.549,12.549,0,0,0,3.245.433,12.687,12.687,0,0,0,5.265-1.01,11.41,11.41,0,0,0,3.462-2.38,3.609,3.609,0,0,0,1.442,2.452,5.127,5.127,0,0,0,3.245.865,8.952,8.952,0,0,0,1.947-.216,9.438,9.438,0,0,0,2.019-.649c-.938-1.514-1.37-3.894-1.37-7.068V21.859ZM150.944,32.6a1.824,1.824,0,0,1-.433,1.082,5.867,5.867,0,0,1-3.029,1.875,7.445,7.445,0,0,1-2.164.288,3.979,3.979,0,0,1-3.245-1.226,4.285,4.285,0,0,1-.938-2.957,4.027,4.027,0,0,1,.721-2.524,5.654,5.654,0,0,1,1.875-1.587,8.476,8.476,0,0,1,2.6-.865,22.517,22.517,0,0,1,2.957-.433,3.511,3.511,0,0,1,.865-.072h.865Zm35.482-21.2a9.613,9.613,0,0,0-2.019-.216,5.657,5.657,0,0,0-2.38.5,4.658,4.658,0,0,0-1.587,1.3,6.429,6.429,0,0,0-1.082,1.947c-.288.793-.577,1.587-.793,2.38L174.094,33.9l-5.409-18.967a4.7,4.7,0,0,0-1.8-2.813,4.966,4.966,0,0,0-2.957-.938,13.279,13.279,0,0,0-2.38.216,11.738,11.738,0,0,0-2.164.5l9.231,28.487s3.029,7.284-2.38,7.717a6.2,6.2,0,0,1-2.308-.361,6.483,6.483,0,0,1-1.731-.865,18.366,18.366,0,0,0-1.226,2.38,4.294,4.294,0,0,0-.433,1.947,2.829,2.829,0,0,0,1.731,2.741,11.284,11.284,0,0,0,4.471.793c3.245,0,5.769-.793,7.645-2.452a13.567,13.567,0,0,0,3.967-6.491l9.88-33.751A7.673,7.673,0,0,0,186.426,11.4Z" transform="translate(0 -0.025)"/>
</svg>
